<svg xmlns="http://www.w3.org/2000/svg" viewBox="0 0 80 80">
<rect width="80" height="80" rx="16" fill="#3D1A3D"/>
<defs><radialGradient id="bpfava" cx="50%" cy="85%" r="85%"><stop offset="0%" stop-color="#FDE8EE"/><stop offset="55%" stop-color="#F2B8C6"/><stop offset="100%" stop-color="#EDA5BA"/></radialGradient><radialGradient id="bpfavb" cx="50%" cy="85%" r="85%"><stop offset="0%" stop-color="#FBD9E2"/><stop offset="60%" stop-color="#EDA5BA"/><stop offset="100%" stop-color="#E293AC"/></radialGradient></defs>
<g transform="translate(40,40)"><g transform="rotate(-6)"><g transform="rotate(0)"><path d="M0 -1C-11.2 -3 -16 -16.2 -13.12 -27C-10.56 -34.92 -4.48 -36 -3 -34C-1 -32.8 1 -32.8 3 -34C4.48 -36 10.56 -34.92 13.12 -27C16 -16.2 11.2 -3 0 -1Z" fill="url(#bpfava)" fill-opacity=".8"/><path d="M0 -8C-1.2 -16 -1.2 -24 0 -31" stroke="#E293AC" stroke-width=".8" fill="none" stroke-opacity=".48" stroke-linecap="round"/></g><g transform="rotate(72)"><path d="M0 -1C-11.2 -3 -16 -16.2 -13.12 -27C-10.56 -34.92 -4.48 -36 -3 -34C-1 -32.8 1 -32.8 3 -34C4.48 -36 10.56 -34.92 13.12 -27C16 -16.2 11.2 -3 0 -1Z" fill="url(#bpfavb)" fill-opacity=".8"/><path d="M0 -8C-1.2 -16 -1.2 -24 0 -31" stroke="#E293AC" stroke-width=".8" fill="none" stroke-opacity=".48" stroke-linecap="round"/></g><g transform="rotate(144)"><path d="M0 -1C-11.2 -3 -16 -16.2 -13.12 -27C-10.56 -34.92 -4.48 -36 -3 -34C-1 -32.8 1 -32.8 3 -34C4.48 -36 10.56 -34.92 13.12 -27C16 -16.2 11.2 -3 0 -1Z" fill="url(#bpfava)" fill-opacity=".8"/><path d="M0 -8C-1.2 -16 -1.2 -24 0 -31" stroke="#E293AC" stroke-width=".8" fill="none" stroke-opacity=".48" stroke-linecap="round"/></g><g transform="rotate(216)"><path d="M0 -1C-11.2 -3 -16 -16.2 -13.12 -27C-10.56 -34.92 -4.48 -36 -3 -34C-1 -32.8 1 -32.8 3 -34C4.48 -36 10.56 -34.92 13.12 -27C16 -16.2 11.2 -3 0 -1Z" fill="url(#bpfavb)" fill-opacity=".8"/><path d="M0 -8C-1.2 -16 -1.2 -24 0 -31" stroke="#E293AC" stroke-width=".8" fill="none" stroke-opacity=".48" stroke-linecap="round"/></g><g transform="rotate(288)"><path d="M0 -1C-11.2 -3 -16 -16.2 -13.12 -27C-10.56 -34.92 -4.48 -36 -3 -34C-1 -32.8 1 -32.8 3 -34C4.48 -36 10.56 -34.92 13.12 -27C16 -16.2 11.2 -3 0 -1Z" fill="url(#bpfava)" fill-opacity=".8"/><path d="M0 -8C-1.2 -16 -1.2 -24 0 -31" stroke="#E293AC" stroke-width=".8" fill="none" stroke-opacity=".48" stroke-linecap="round"/></g><circle r="4.2" fill="#FDE8EE" fill-opacity=".95"/><path d="M0 -3.2Q0.39 -6.57 0 -11.96" stroke="#FDE8EE" stroke-width=".9" fill="none" stroke-linecap="round"/><circle cx="0" cy="-11.96" r="1.5" fill="#C4637E"/><path d="M2.35 -2.18Q4.01 -3.3 6.92 -6.42" stroke="#FDE8EE" stroke-width=".9" fill="none" stroke-linecap="round"/><circle cx="6.92" cy="-6.42" r="1.5" fill="#C4637E"/><path d="M3.19 -0.2Q4.83 -0.01 8.77 -0.54" stroke="#FDE8EE" stroke-width=".9" fill="none" stroke-linecap="round"/><circle cx="8.77" cy="-0.54" r="1.5" fill="#C4637E"/><path d="M2.81 1.54Q5.67 3.57 10.68 5.85" stroke="#FDE8EE" stroke-width=".9" fill="none" stroke-linecap="round"/><circle cx="10.68" cy="5.85" r="1.5" fill="#C4637E"/><path d="M1.48 2.83Q1.87 4.17 3.85 7.36" stroke="#FDE8EE" stroke-width=".9" fill="none" stroke-linecap="round"/><circle cx="3.85" cy="7.36" r="1.5" fill="#C4637E"/><path d="M-0.79 3.1Q-1.69 5.28 -2.5 9.76" stroke="#FDE8EE" stroke-width=".9" fill="none" stroke-linecap="round"/><circle cx="-2.5" cy="9.76" r="1.5" fill="#C4637E"/><path d="M-2.84 1.48Q-5.82 2.6 -10.28 5.35" stroke="#FDE8EE" stroke-width=".9" fill="none" stroke-linecap="round"/><circle cx="-10.28" cy="5.35" r="1.5" fill="#C4637E"/><path d="M-3.04 -0.98Q-4 -1.56 -7.43 -2.4" stroke="#FDE8EE" stroke-width=".9" fill="none" stroke-linecap="round"/><circle cx="-7.43" cy="-2.4" r="1.5" fill="#C4637E"/><path d="M-1.85 -2.61Q-3.29 -5.29 -6.55 -9.25" stroke="#FDE8EE" stroke-width=".9" fill="none" stroke-linecap="round"/><circle cx="-6.55" cy="-9.25" r="1.5" fill="#C4637E"/></g></g>
</svg>
